ply
format ascii 1.0
element vertex 102
property float x
property float y
property float z
element face 100
property list uchar int vertex_indices
end_header
0.5 0.5 0.5
1 1 1
0.75 0.75 0.25
0.75 0.75 0.75
0.875 0.875 0.625
0.625 0.625 0.375
0.8125 0.8125 0.4375
0.6875 0.6875 0.3125
0.75 0.75 0.5
0.75 0.75 0.375
0.71875 0.71875 0.40625
0.78125 0.78125 0.46875
0.8125 0.8125 0.6875
0.75 0.75 0.5
0.6875 0.6875 0.5625
0.625 0.625 0.625
0.6875 0.6875 0.5625
0.5625 0.5625 0.4375
0.875 0.875 0.875
0.9375 0.9375 0.8125
0.8125 0.8125 0.6875
0.84375 0.84375 0.53125
0.78125 0.78125 0.46875
0.8125 0.8125 0.5625
0.78125 0.78125 0.34375
0.71875 0.71875 0.28125
0.75 0.75 0.375
0.78125 0.78125 0.59375
0.71875 0.71875 0.53125
0.75 0.75 0.625
0.65625 0.65625 0.46875
0.59375 0.59375 0.40625
0.625 0.625 0.5
0.90625 0.90625 0.71875
0.84375 0.84375 0.65625
0.875 0.875 0.75
0.734375 0.734375 0.390625
0.75 0.75 0.4375
0.765625 0.765625 0.421875
0.65625 0.65625 0.34375
0.6875 0.6875 0.4375
0.71875 0.71875 0.40625
0.78125 0.78125 0.71875
0.75 0.75 0.625
0.71875 0.71875 0.65625
0.84375 0.84375 0.65625
0.8125 0.8125 0.5625
0.78125 0.78125 0.59375
0.6875 0.6875 0.4375
0.65625 0.65625 0.46875
0.71875 0.71875 0.53125
0.65625 0.65625 0.59375
0.625 0.625 0.5
0.59375 0.59375 0.53125
0.5625 0.5625 0.5625
0.59375 0.59375 0.53125
0.53125 0.53125 0.46875
0.6875 0.6875 0.6875
0.71875 0.71875 0.65625
0.65625 0.65625 0.59375
0.90625 0.90625 0.84375
0.875 0.875 0.75
0.84375 0.84375 0.78125
0.8125 0.8125 0.8125
0.84375 0.84375 0.78125
0.78125 0.78125 0.71875
0.9375 0.9375 0.9375
0.96875 0.96875 0.90625
0.90625 0.90625 0.84375
0.734375 0.734375 0.453125
0.765625 0.765625 0.484375
0.75 0.75 0.4375
0.859375 0.859375 0.578125
0.828125 0.828125 0.546875
0.84375 0.84375 0.59375
0.828125 0.828125 0.484375
0.796875 0.796875 0.453125
0.8125 0.8125 0.5
0.796875 0.796875 0.390625
0.765625 0.765625 0.359375
0.78125 0.78125 0.40625
0.765625 0.765625 0.296875
0.734375 0.734375 0.265625
0.75 0.75 0.3125
0.796875 0.796875 0.640625
0.765625 0.765625 0.609375
0.78125 0.78125 0.65625
0.765625 0.765625 0.546875
0.734375 0.734375 0.515625
0.75 0.75 0.5625
0.671875 0.671875 0.515625
0.640625 0.640625 0.484375
0.65625 0.65625 0.53125
0.640625 0.640625 0.421875
0.609375 0.609375 0.390625
0.625 0.625 0.4375
0.921875 0.921875 0.765625
0.890625 0.890625 0.734375
0.90625 0.90625 0.78125
0.890625 0.890625 0.671875
0.859375 0.859375 0.640625
0.875 0.875 0.6875
3 27 28 29
3 51 52 53
3 60 61 62
3 36 37 38
3 21 22 23
3 24 25 26
3 39 40 41
3 6 9 11
3 9 7 10
3 69 70 71
3 42 43 44
3 45 46 47
3 48 49 50
3 54 55 56
3 57 58 59
3 30 31 32
3 63 64 65
3 66 67 68
3 33 34 35
3 72 73 74
3 75 76 77
3 22 8 23
3 78 79 80
3 81 82 83
3 25 7 26
3 84 85 86
3 87 88 89
3 28 14 29
3 90 91 92
3 93 94 95
3 31 17 32
3 96 97 98
3 99 100 101
3 34 20 35
3 9 36 38
3 36 10 37
3 37 11 38
3 7 39 41
3 39 5 40
3 40 8 41
3 3 42 44
3 42 12 43
3 43 14 44
3 12 45 47
3 45 4 46
3 46 13 47
3 13 48 50
3 48 5 49
3 49 14 50
3 15 51 53
3 51 16 52
3 52 17 53
3 0 54 56
3 54 15 55
3 55 17 56
3 15 57 59
3 57 3 58
3 58 16 59
3 18 60 62
3 60 19 61
3 61 20 62
3 3 63 65
3 63 18 64
3 64 20 65
3 18 66 68
3 66 1 67
3 67 19 68
3 10 69 71
3 69 8 70
3 70 11 71
3 4 72 74
3 72 21 73
3 73 23 74
3 21 75 77
3 75 6 76
3 76 22 77
3 6 78 80
3 78 24 79
3 79 26 80
3 24 81 83
3 81 2 82
3 82 25 83
3 12 84 86
3 84 27 85
3 85 29 86
3 27 87 89
3 87 13 88
3 88 28 89
3 16 90 92
3 90 30 91
3 91 32 92
3 30 93 95
3 93 5 94
3 94 31 95
3 19 96 98
3 96 33 97
3 97 35 98
3 33 99 101
3 99 4 100
3 100 34 101
